<?xml version="1.0" encoding="utf-8"?>
<!-- Generator: Adobe Illustrator 19.0.0, SVG Export Plug-In . SVG Version: 6.00 Build 0)  -->
<svg version="1.1" id="Layer_1" xmlns="http://www.w3.org/2000/svg" xmlns:xlink="http://www.w3.org/1999/xlink" x="0px" y="0px"
	 viewBox="0 0 687.7 687.7" style="enable-background:new 0 0 687.7 687.7;" xml:space="preserve">
<path id="XMLID_165_" d="M417.4,515.9h-29.5c0,0-33.7-47-33.7-149v-100c0,0,0.3-61,4.3-88s16-39.3,31-39.3l-1.7-12h-22.1
	c9.2-10.1,22.6-25.2,22.6-25.2s-21.2-1.5-29.3-3.7c0,0-4,3.1-7.9,6.1h-19.5l-7.9-6.1c-8.2,2.2-29.3,3.7-29.3,3.7
	s13.5,15.1,22.6,25.2h-22.1l-1.7,12c15,0,27,12.3,31,39.3s4.3,88,4.3,88v100c0,102-33.7,149-33.7,149h-29.5l-139.2,130l143.3-71.7
	l9.3,9.3h20l42.5,35.3l42.5-35.3h20l9.3-9.3l143.3,71.7L417.4,515.9z M340,111.1l-1-4.7c0,0,1.6,0.1,2.4-0.6
	c0.8,0.7,2.4,0.6,2.4,0.6l-1,4.7l-1.4,1.1L340,111.1z M313.5,138.6c0,0,2-0.8,5.2-2.4c3.2-1.6,5.7-0.7,5.7-0.7
	c5.2,5.3,12.3,5.8,17,5.8s11.8-0.5,17-5.8c0,0,2.5-0.9,5.7,0.7c3.2,1.6,5.2,2.4,5.2,2.4s-1.1,4.8-27.8,4.8S313.5,138.6,313.5,138.6z
	 M341.7,151.6c0.2,0.4,0.4,1.2,0.4,2.1c0,1.4-0.4,2.5-0.8,2.5s-0.8-1.1-0.8-2.5c0-0.9,0.2-1.7,0.4-2.1c-0.8-0.2-1.4-0.8-1.4-1.6
	c0-0.9,0.8-1.6,1.8-1.6s1.8,0.7,1.8,1.6C343.2,150.8,342.6,151.5,341.7,151.6z"/>
</svg>
